<svg xmlns="http://www.w3.org/2000/svg" xmlns:xlink="http://www.w3.org/1999/xlink" width="980" zoomAndPan="magnify" viewBox="0 0 735 735" height="980" preserveAspectRatio="xMidYMid meet" version="1.0"><path fill="#acdefd" d="M 507.582031 115.75 C 507.582031 179.433594 477.300781 231.0625 439.945312 231.0625 C 402.59375 231.0625 372.3125 179.433594 372.3125 115.75 C 372.3125 52.0625 402.59375 0.433594 439.945312 0.433594 C 477.300781 0.433594 507.582031 52.0625 507.582031 115.75 Z M 507.582031 115.75 " fill-opacity="1" fill-rule="nonzero"/><path fill="#5470e0" d="M 492.058594 113.550781 C 492.058594 163.140625 468.480469 203.34375 439.394531 203.34375 C 410.304688 203.34375 386.726562 163.140625 386.726562 113.550781 C 386.726562 63.960938 410.304688 23.757812 439.394531 23.757812 C 468.480469 23.757812 492.058594 63.957031 492.058594 113.550781 Z M 492.058594 113.550781 " fill-opacity="1" fill-rule="nonzero"/><path fill="#acdefd" d="M 477.421875 112.976562 C 477.421875 149.414062 460.097656 178.949219 438.726562 178.949219 C 417.355469 178.949219 400.03125 149.414062 400.03125 112.976562 C 400.03125 76.542969 417.355469 47.007812 438.726562 47.007812 C 460.097656 47.007812 477.421875 76.542969 477.421875 112.976562 Z M 477.421875 112.976562 " fill-opacity="1" fill-rule="nonzero"/><path fill="#5470e0" d="M 465.289062 110.761719 C 465.289062 136.785156 452.914062 157.882812 437.648438 157.882812 C 422.386719 157.882812 410.011719 136.785156 410.011719 110.761719 C 410.011719 84.734375 422.386719 63.636719 437.648438 63.636719 C 452.914062 63.636719 465.289062 84.734375 465.289062 110.761719 Z M 465.289062 110.761719 " fill-opacity="1" fill-rule="nonzero"/><path fill="#acdefd" d="M 455.472656 110.761719 C 455.472656 127.601562 447.28125 141.25 437.175781 141.25 C 427.074219 141.25 418.882812 127.601562 418.882812 110.761719 C 418.882812 93.921875 427.074219 80.269531 437.175781 80.269531 C 447.28125 80.269531 455.472656 93.921875 455.472656 110.761719 Z M 455.472656 110.761719 " fill-opacity="1" fill-rule="nonzero"/><path fill="#5470e0" d="M 446.601562 111.683594 C 446.601562 121.890625 441.636719 130.164062 435.511719 130.164062 C 429.390625 130.164062 424.425781 121.890625 424.425781 111.683594 C 424.425781 101.476562 429.390625 93.203125 435.511719 93.203125 C 441.636719 93.203125 446.601562 101.476562 446.601562 111.683594 Z M 446.601562 111.683594 " fill-opacity="1" fill-rule="nonzero"/><path fill="#000000" d="M 135.71875 163.34375 C 133.25 157.300781 134.992188 150.324219 139.257812 145.550781 C 141.464844 143.082031 144.214844 141.695312 147.285156 140.628906 C 149.230469 139.976562 150.128906 138.984375 151.324219 137.375 C 152.355469 135.988281 153.496094 134.792969 154.953125 133.855469 C 160.980469 130.003906 168.839844 132.097656 172.917969 137.691406 C 175.105469 140.703125 175.910156 144.183594 175.628906 147.609375 C 179.277344 146.636719 183.339844 146.28125 187.847656 146.9375 C 210.710938 150.265625 222.351562 180.613281 207.382812 191 C 192.414062 201.402344 163.300781 212.21875 163.300781 212.21875 C 162.046875 211.785156 149.996094 210.550781 145.429688 194.328125 C 143.074219 185.964844 145.152344 178.707031 147.695312 173.636719 C 142.417969 172.308594 137.796875 168.414062 135.71875 163.34375 Z M 234.824219 385.179688 C 224.847656 360.789062 221.519531 350.808594 221.519531 350.808594 L 153.882812 353.027344 C 147.230469 358.570312 138.339844 397.207031 137.25 451.710938 C 136.140625 507.148438 138.359375 682.335938 138.359375 682.335938 L 196.015625 681.222656 L 199.34375 469.449219 L 227.0625 684.550781 C 227.0625 684.550781 275.847656 684.550781 273.632812 680.117188 C 271.414062 675.683594 243.867188 407.289062 234.824219 385.179688 Z M 439.59375 119.730469 C 439.285156 117.546875 437.273438 116.035156 435.085938 116.34375 L 371.140625 125.429688 L 360.601562 118.597656 L 322.667969 118.402344 L 344.039062 129.511719 C 342.558594 130.261719 341.632812 131.878906 341.882812 133.617188 C 342.066406 134.910156 342.851562 135.957031 343.914062 136.542969 L 327.238281 153.007812 L 363.957031 143.476562 L 372.351562 133.3125 L 436.207031 124.238281 C 438.386719 123.929688 439.90625 121.910156 439.59375 119.730469 Z M 439.59375 119.730469 " fill-opacity="1" fill-rule="nonzero"/><path fill="#ffcaeb" d="M 206.136719 177.703125 C 208.632812 183.941406 205.71875 195.582031 205.71875 195.582031 C 205.71875 195.582031 205.167969 223.023438 193.800781 222.191406 C 193.425781 222.164062 193.066406 222.117188 192.699219 222.082031 L 190.199219 237.714844 C 190.199219 237.714844 183.820312 240.765625 176.058594 239.929688 C 168.300781 239.101562 156.378906 233.28125 159.429688 230.507812 C 161.625 228.507812 163.96875 213.839844 165.414062 205.285156 C 162.328125 203.355469 158.230469 199.484375 158.042969 194.195312 C 157.765625 186.433594 163.515625 183.269531 167.742188 186.976562 C 182.851562 189.34375 196.15625 163.980469 196.15625 163.980469 C 196.15625 163.980469 203.640625 171.464844 206.136719 177.703125 Z M 129.488281 368.550781 C 128.378906 370.488281 121.175781 380.746094 121.453125 381.578125 C 121.726562 382.410156 126.71875 404.03125 129.210938 407.910156 C 131.707031 411.792969 138.914062 421.214844 138.914062 421.214844 L 140.324219 407.933594 L 137.804688 391.832031 C 137.804688 391.832031 141.132812 389.894531 143.351562 394.050781 C 145.566406 398.207031 147.230469 400.148438 150.003906 399.59375 C 152.773438 399.039062 150.28125 388.230469 148.0625 382.683594 C 145.847656 377.140625 129.488281 368.550781 129.488281 368.550781 Z M 307.449219 243.8125 C 306.816406 244.449219 303.1875 245.652344 298.820312 246.957031 C 300.925781 244.328125 303.558594 240.320312 304.679688 238.824219 C 306.34375 236.609375 304.125 231.0625 299.136719 236.609375 C 294.144531 242.152344 280.757812 245.3125 279.175781 252.6875 C 275.847656 268.207031 269.199219 276.523438 269.199219 276.523438 L 283.613281 293.710938 L 289.707031 269.3125 C 289.707031 269.3125 313.546875 259.335938 316.320312 254.898438 C 319.089844 250.464844 321.863281 227.734375 321.308594 223.300781 C 320.753906 218.867188 309.113281 242.148438 307.449219 243.8125 Z M 385.128906 377.421875 C 379.410156 371.878906 376.867188 377.421875 378.773438 379.640625 C 380.058594 381.132812 383.074219 385.140625 385.488281 387.769531 C 380.484375 386.464844 376.324219 385.265625 375.597656 384.628906 C 373.691406 382.964844 360.351562 359.679688 359.714844 364.117188 C 359.078125 368.550781 362.253906 391.28125 365.433594 395.71875 C 368.609375 400.152344 389.167969 412.902344 395.042969 414.566406 C 400.917969 416.230469 405.023438 431.199219 405.023438 431.199219 L 419.4375 417.339844 C 419.4375 417.339844 411.8125 409.023438 408 393.5 C 406.191406 386.125 390.847656 382.964844 385.128906 377.421875 Z M 515.898438 287.054688 C 515.691406 287.089844 515.585938 287.140625 515.578125 287.207031 C 516.300781 287 516.492188 286.957031 515.898438 287.054688 Z M 547.496094 301.46875 C 536.59375 292.640625 515.472656 288.191406 515.578125 287.207031 C 512.261719 288.152344 497.566406 292.558594 494.832031 302.578125 C 494.832031 323.089844 484.855469 318.515625 484.296875 322.398438 C 483.746094 326.277344 492.199219 350.671875 492.199219 350.671875 L 507.996094 350.257812 L 510.078125 358.15625 C 510.078125 358.15625 546.945312 353.582031 546.386719 350.808594 C 545.832031 348.039062 559.140625 310.894531 547.496094 301.46875 Z M 547.496094 301.46875 " fill-opacity="1" fill-rule="nonzero"/><path fill="#5470e0" d="M 286.378906 287.882812 C 286.378906 287.882812 290.335938 292.660156 290.535156 297.449219 C 290.949219 307.425781 272.242188 335.285156 266.417969 347.757812 C 260.597656 360.234375 258.519531 355.65625 247.292969 354.828125 C 236.066406 353.996094 226.917969 326.136719 226.089844 327.800781 C 225.257812 329.464844 224.425781 350.253906 221.929688 353.582031 C 219.4375 356.90625 148.753906 357.738281 148.753906 357.738281 L 124.636719 307.011719 L 114.65625 328.632812 C 114.65625 328.632812 125.46875 338.199219 127.132812 342.355469 C 128.796875 346.511719 128.003906 353.023438 128.796875 360.648438 C 129.304688 365.550781 132.539062 369.382812 132.539062 369.382812 L 120.894531 382.273438 C 120.894531 382.273438 118.765625 378.789062 112.582031 377.28125 C 106.394531 375.773438 96.15625 376.242188 90.542969 372.292969 C 79.316406 364.390625 73.496094 350.253906 74.328125 336.535156 C 75.160156 322.8125 100.105469 270.007812 103.847656 257.949219 C 107.589844 245.890625 138.359375 237.574219 146.261719 236.328125 C 154.160156 235.082031 154.160156 226.347656 159.148438 222.605469 C 164.140625 218.863281 191.164062 223.855469 194.90625 225.519531 C 198.648438 227.183594 194.492188 231.757812 195.738281 232.171875 C 196.984375 232.585938 223.597656 243.8125 230.664062 248.804688 C 237.734375 253.792969 248.128906 291.214844 248.546875 292.460938 C 248.546875 292.460938 250.207031 276.246094 265.175781 277.492188 C 267.414062 277.679688 270.996094 270.839844 270.996094 270.839844 L 289.289062 280.816406 Z M 429.414062 588.917969 L 429.414062 734.445312 L 633.152344 734.445312 L 633.152344 588.917969 Z M 429.414062 588.917969 " fill-opacity="1" fill-rule="nonzero"/><path fill="#000000" d="M 215.695312 731.539062 L 153.328125 730.289062 L 154.578125 697.859375 L 154.578125 678.730469 L 179.941406 677.484375 C 179.941406 677.484375 185.347656 698.6875 191.582031 703.679688 C 197.820312 708.667969 198.234375 705.339844 207.382812 711.992188 C 216.53125 718.644531 215.695312 731.535156 215.695312 731.539062 Z M 288.460938 709.914062 C 279.3125 703.261719 278.898438 706.589844 272.660156 701.601562 C 266.425781 696.609375 261.019531 675.40625 261.019531 675.40625 L 235.65625 676.652344 L 235.65625 695.777344 L 234.40625 729.457031 L 296.777344 731.535156 C 296.777344 731.535156 297.609375 716.566406 288.460938 709.914062 Z M 563.351562 308.519531 C 558 295.890625 547.523438 285.488281 534.050781 281.953125 C 529.707031 280.800781 518.730469 278.648438 509.613281 283.226562 C 509.191406 282.941406 508.65625 282.777344 507.992188 282.808594 C 500.671875 283.179688 494.363281 287.40625 489.835938 293.210938 C 479.722656 306.183594 493.511719 316.945312 493.882812 314.589844 C 494.59375 310.082031 495.476562 304.324219 498.246094 300.261719 C 498.441406 304.046875 500.03125 307.8125 502.523438 310.894531 C 506.863281 316.246094 515.066406 317.820312 515.066406 317.820312 C 515.066406 317.820312 525.042969 307.011719 528.371094 320.734375 C 530.847656 330.949219 518.808594 334.867188 518.808594 334.867188 C 518.808594 334.867188 510.90625 340.683594 513.46875 349.402344 C 513.863281 350.671875 514.910156 351.328125 516.183594 351.460938 C 531.054688 352.898438 545.929688 354.339844 560.804688 355.800781 C 562.078125 355.914062 563.125 354.828125 563.5 353.742188 C 568.628906 339.1875 569.449219 322.910156 563.351562 308.519531 Z M 563.351562 308.519531 " fill-opacity="1" fill-rule="nonzero"/><path fill="#acdefd" d="M 412.230469 697.300781 L 414.449219 732.785156 L 344.039062 733.335938 C 344.039062 733.335938 344.078125 733.175781 344.15625 732.894531 L 288.042969 733.335938 C 288.042969 733.335938 290.261719 723.914062 296.359375 722.25 C 302.457031 720.585938 327.957031 699.519531 329.621094 697.855469 C 329.621094 697.855469 356.234375 701.183594 357.898438 701.183594 C 358.777344 701.183594 358.882812 710.046875 358.785156 718.386719 C 368.425781 711.273438 383.769531 696.933594 385.0625 695.640625 Z M 604.046875 471.113281 C 601.039062 456.511719 588.121094 418.519531 579.175781 401.019531 C 570.230469 383.519531 549.714844 371.875 549.714844 371.875 L 541.402344 352.472656 L 508.136719 358.015625 C 508.136719 358.015625 506.476562 368.550781 506.476562 370.769531 C 506.476562 370.769531 492.058594 375.203125 479.863281 387.402344 C 469.671875 397.59375 462.191406 433.71875 460.007812 445.308594 L 423.316406 411.238281 L 392.828125 441.730469 C 392.828125 441.730469 447.710938 506.59375 459.90625 509.363281 C 469.300781 511.5 475.402344 511.976562 479.738281 509.808594 L 477.09375 530.429688 L 556.371094 538.746094 C 556.371094 538.746094 560.640625 509.582031 567.910156 480.738281 C 573.929688 504.96875 588.089844 561.949219 588.523438 563.691406 C 589.078125 565.910156 621.789062 557.039062 621.789062 557.039062 C 621.789062 557.039062 607.925781 489.960938 604.046875 471.113281 Z M 604.046875 471.113281 " fill-opacity="1" fill-rule="nonzero"/><path fill="#000000" d="M 542.511719 589.199219 C 531.453125 599.179688 441.613281 596.960938 431.078125 596.960938 C 430.707031 596.960938 430.269531 597.101562 429.78125 597.347656 C 426.449219 623.214844 414.445312 697.855469 414.445312 697.855469 L 376.191406 699.519531 C 376.191406 699.519531 377.746094 685.191406 379.613281 668.917969 C 368.8125 686.9375 360.671875 701.476562 360.671875 702.292969 C 360.671875 704.511719 314.65625 695.640625 314.65625 695.640625 C 314.65625 695.640625 382.292969 569.238281 390.605469 559.257812 C 398.925781 549.277344 475.429688 526.550781 478.199219 525.996094 L 556.925781 532.652344 C 556.925781 532.652344 565.242188 568.6875 542.511719 589.199219 Z M 542.511719 589.199219 " fill-opacity="1" fill-rule="nonzero"/><path fill="#ffcaeb" d="M 633.980469 612.480469 C 629.546875 614.144531 633.980469 597.511719 629.546875 594.1875 C 625.113281 590.859375 621.785156 584.207031 617.90625 581.988281 C 614.023438 579.773438 621.785156 593.078125 617.90625 594.742188 C 614.023438 596.402344 613.46875 590.859375 605.15625 583.097656 C 596.839844 575.335938 597.945312 566.464844 599.058594 560.921875 C 599.058594 560.921875 612.363281 552.605469 614.023438 552.050781 C 615.6875 551.5 616.242188 557.042969 616.796875 558.707031 C 617.351562 560.367188 638.972656 579.21875 642.851562 588.640625 C 646.734375 598.066406 638.417969 610.816406 633.980469 612.480469 Z M 633.980469 612.480469 " fill-opacity="1" fill-rule="nonzero"/><path fill="#5470e0" d="M 334.613281 15.960938 L 334.613281 21.78125 C 334.613281 28.210938 329.402344 33.421875 322.972656 33.421875 L 270.582031 33.421875 C 264.152344 33.421875 258.941406 28.210938 258.941406 21.78125 L 258.941406 15.960938 C 258.941406 9.53125 264.152344 4.316406 270.582031 4.316406 L 322.972656 4.316406 C 329.402344 4.316406 334.613281 9.53125 334.613281 15.960938 Z M 601.550781 86.644531 L 549.164062 86.644531 C 542.734375 86.644531 537.519531 91.855469 537.519531 98.285156 L 537.519531 104.105469 C 537.519531 110.535156 542.734375 115.75 549.164062 115.75 L 601.550781 115.75 C 607.980469 115.75 613.195312 110.535156 613.195312 104.105469 L 613.195312 98.285156 C 613.195312 91.855469 607.980469 86.644531 601.550781 86.644531 Z M 416.941406 288.71875 L 364.550781 288.71875 C 358.121094 288.71875 352.910156 293.933594 352.910156 300.359375 L 352.910156 306.183594 C 352.910156 312.609375 358.121094 317.824219 364.550781 317.824219 L 416.941406 317.824219 C 423.371094 317.824219 428.582031 312.609375 428.582031 306.183594 L 428.582031 300.359375 C 428.582031 293.933594 423.371094 288.71875 416.941406 288.71875 Z M 416.941406 288.71875 " fill-opacity="1" fill-rule="nonzero"/><path fill="#000000" d="M 413.519531 227.691406 C 414.617188 228.785156 414.617188 230.566406 413.519531 231.660156 L 391.058594 254.121094 L 391.058594 280.402344 C 391.058594 281.953125 389.800781 283.207031 388.25 283.207031 C 386.703125 283.207031 385.445312 281.953125 385.445312 280.402344 L 385.445312 252.960938 C 385.445312 252.214844 385.742188 251.5 386.265625 250.972656 L 409.550781 227.691406 C 410.644531 226.59375 412.425781 226.59375 413.519531 227.691406 Z M 572.875 120.722656 C 571.492188 120.03125 569.800781 120.585938 569.105469 121.972656 L 556.535156 147.035156 L 515.898438 147.035156 C 514.347656 147.035156 513.089844 148.289062 513.089844 149.839844 C 513.089844 151.390625 514.347656 152.648438 515.898438 152.648438 L 558.265625 152.648438 C 559.328125 152.648438 560.300781 152.050781 560.777344 151.097656 L 574.125 124.488281 C 574.820312 123.105469 574.257812 121.421875 572.875 120.722656 Z M 346.289062 74.824219 L 299.449219 59.65625 L 299.449219 40.90625 C 299.449219 39.355469 298.195312 38.101562 296.644531 38.101562 C 295.089844 38.101562 293.835938 39.355469 293.835938 40.90625 L 293.835938 61.695312 C 293.835938 62.910156 294.621094 63.992188 295.777344 64.367188 L 344.5625 80.167969 C 344.847656 80.257812 345.140625 80.304688 345.425781 80.304688 C 346.609375 80.304688 347.714844 79.546875 348.097656 78.359375 C 348.574219 76.886719 347.765625 75.304688 346.289062 74.824219 Z M 346.289062 74.824219 " fill-opacity="1" fill-rule="nonzero"/></svg>