<svg xmlns="http://www.w3.org/2000/svg" xmlns:xlink="http://www.w3.org/1999/xlink" width="558" zoomAndPan="magnify" viewBox="0 0 418.5 418.499996" height="558" preserveAspectRatio="xMidYMid meet" version="1.0"><defs><g/><clipPath id="db9a9a2cdf"><path d="M 0 0 L 418 0 L 418 418 L 0 418 Z M 0 0 " clip-rule="nonzero"/></clipPath><clipPath id="afde311e04"><path d="M 213.453125 343.171875 L 418 343.171875 L 418 381 L 213.453125 381 Z M 213.453125 343.171875 " clip-rule="nonzero"/></clipPath></defs><g clip-path="url(#db9a9a2cdf)"><path fill="#ffffff" d="M 0 0 L 418.5 0 L 418.5 426 L 0 426 Z M 0 0 " fill-opacity="1" fill-rule="nonzero"/><path fill="#ffffff" d="M 0 0 L 418.5 0 L 418.5 418.5 L 0 418.5 Z M 0 0 " fill-opacity="1" fill-rule="nonzero"/><path fill="#ffffff" d="M 0 0 L 418.5 0 L 418.5 418.5 L 0 418.5 Z M 0 0 " fill-opacity="1" fill-rule="nonzero"/></g><g clip-path="url(#afde311e04)"><path fill="#ffffff" d="M 213.453125 343.171875 L 537.011719 343.171875 L 537.011719 380.847656 L 213.453125 380.847656 Z M 213.453125 343.171875 " fill-opacity="1" fill-rule="nonzero"/></g><g fill="#292727" fill-opacity="1"><g transform="translate(3.986848, 333.08741)"><g><path d="M 119.980469 -141.003906 C 149.34375 -147.167969 173.265625 -165.292969 173.265625 -197.914062 C 173.265625 -239.601562 129.769531 -255.914062 75.394531 -255.914062 L 12.6875 -255.914062 L 12.6875 0 L 98.59375 0 C 154.417969 -0.363281 197.914062 -12.6875 197.914062 -71.046875 C 197.914062 -122.519531 165.652344 -137.742188 119.980469 -141.003906 Z M 169.640625 -71.046875 C 169.640625 -5.800781 128.320312 -2.898438 95.695312 -2.898438 L 41.324219 -2.898438 L 41.324219 -201.902344 C 44.222656 -187.765625 48.574219 -175.441406 55.097656 -165.652344 C 65.609375 -148.980469 81.558594 -139.191406 98.59375 -139.191406 C 130.132812 -139.191406 169.640625 -135.929688 169.640625 -71.046875 Z M 144.992188 -197.914062 C 144.992188 -158.40625 122.882812 -142.09375 98.59375 -142.09375 C 82.285156 -142.09375 68.148438 -151.15625 57.996094 -167.464844 C 47.484375 -182.691406 41.324219 -204.441406 41.324219 -229.449219 L 41.324219 -253.375 L 75.394531 -253.375 C 110.195312 -253.375 144.992188 -239.238281 144.992188 -197.914062 Z M 144.992188 -197.914062 "/></g></g></g><g fill="#9247c6" fill-opacity="1"><g transform="translate(174.930221, 327.531428)"><g><path d="M 232.429688 -255.996094 C 155.554688 -255.996094 132.351562 -148.304688 125.460938 -64.90625 L 42.789062 -255.996094 L 12.691406 -255.996094 L 12.691406 0 L 14.867188 0 L 14.867188 -249.472656 L 25.019531 -225.539062 L 122.921875 0 L 126.546875 0 C 126.546875 -65.992188 132.351562 -216.835938 204.871094 -247.296875 L 204.871094 0 L 232.429688 0 Z M 232.429688 -255.996094 "/></g></g></g></svg>