<svg xmlns="http://www.w3.org/2000/svg" xmlns:xlink="http://www.w3.org/1999/xlink" width="300" zoomAndPan="magnify" viewBox="0 0 224.87999 74.999997" height="100" preserveAspectRatio="xMidYMid meet" version="1.0"><defs><g/></defs><g fill="#292727" fill-opacity="1"><g transform="translate(2.188236, 68.15046)"><g><path d="M 28.933594 -34.003906 C 36.011719 -35.488281 41.78125 -39.859375 41.78125 -47.726562 C 41.78125 -57.777344 31.292969 -61.710938 18.179688 -61.710938 L 3.058594 -61.710938 L 3.058594 0 L 23.777344 0 C 37.238281 -0.0859375 47.726562 -3.058594 47.726562 -17.132812 C 47.726562 -29.546875 39.945312 -33.214844 28.933594 -34.003906 Z M 40.910156 -17.132812 C 40.910156 -1.398438 30.945312 -0.699219 23.078125 -0.699219 L 9.964844 -0.699219 L 9.964844 -48.6875 C 10.664062 -45.277344 11.714844 -42.308594 13.285156 -39.945312 C 15.820312 -35.925781 19.667969 -33.566406 23.777344 -33.566406 C 31.378906 -33.566406 40.910156 -32.777344 40.910156 -17.132812 Z M 34.964844 -47.726562 C 34.964844 -38.199219 29.632812 -34.265625 23.777344 -34.265625 C 19.84375 -34.265625 16.433594 -36.449219 13.984375 -40.382812 C 11.449219 -44.054688 9.964844 -49.300781 9.964844 -55.332031 L 9.964844 -61.101562 L 18.179688 -61.101562 C 26.574219 -61.101562 34.964844 -57.691406 34.964844 -47.726562 Z M 34.964844 -47.726562 "/></g></g></g><g fill="#292727" fill-opacity="1"><g transform="translate(96.168584, 66.721131)"><g><path d="M 56.050781 -61.734375 C 37.511719 -61.734375 31.914062 -35.761719 30.253906 -15.652344 L 10.316406 -61.734375 L 3.058594 -61.734375 L 3.058594 0 L 3.585938 0 L 3.585938 -60.160156 L 6.035156 -54.386719 L 29.640625 0 L 30.515625 0 C 30.515625 -15.914062 31.914062 -52.289062 49.402344 -59.632812 L 49.402344 0 L 56.050781 0 Z M 56.050781 -61.734375 "/></g></g></g><g fill="#000000" fill-opacity="1"><g transform="translate(45.127809, 34.215089)"><g><path d="M 5.484375 -6.90625 L 5.484375 -6.015625 L 1.921875 -6.015625 L 1.921875 -3.921875 L 5.09375 -3.921875 L 5.09375 -3.03125 L 1.921875 -3.03125 L 1.921875 -0.890625 L 5.609375 -0.890625 L 5.609375 0 L 1 0 L 1 -6.90625 Z M 5.484375 -6.90625 "/></g></g></g><g fill="#000000" fill-opacity="1"><g transform="translate(53.812664, 34.215089)"><g><path d="M 4.609375 -1.8125 L 1.953125 -1.8125 L 1.21875 0 L 0.3125 0 L 3.328125 -7.1875 L 3.375 -7.1875 L 6.390625 0 L 5.328125 0 Z M 4.296875 -2.609375 L 3.3125 -5.140625 L 2.296875 -2.609375 Z M 4.296875 -2.609375 "/></g></g></g><g fill="#000000" fill-opacity="1"><g transform="translate(62.955623, 34.215089)"><g><path d="M 5.0625 -6.90625 L 5.0625 -6.015625 L 3.21875 -6.015625 L 3.21875 0 L 2.296875 0 L 2.296875 -6.015625 L 0.484375 -6.015625 L 0.484375 -6.90625 Z M 5.0625 -6.90625 "/></g></g></g><g fill="#000000" fill-opacity="1"><g transform="translate(70.962869, 34.215089)"><g><path d="M 4.796875 0 L 3.171875 -2.546875 C 3.117188 -2.546875 3.039062 -2.546875 2.9375 -2.546875 L 1.921875 -2.546875 L 1.921875 0 L 1 0 L 1 -6.90625 L 2.828125 -6.90625 C 3.304688 -6.90625 3.726562 -6.820312 4.09375 -6.65625 C 4.46875 -6.488281 4.757812 -6.242188 4.96875 -5.921875 C 5.175781 -5.597656 5.28125 -5.210938 5.28125 -4.765625 C 5.28125 -4.335938 5.1875 -3.945312 5 -3.59375 C 4.8125 -3.238281 4.523438 -2.96875 4.140625 -2.78125 L 5.875 0 Z M 2.921875 -3.4375 C 3.421875 -3.4375 3.78125 -3.566406 4 -3.828125 C 4.21875 -4.085938 4.328125 -4.382812 4.328125 -4.71875 C 4.328125 -4.925781 4.28125 -5.128906 4.1875 -5.328125 C 4.09375 -5.523438 3.945312 -5.6875 3.75 -5.8125 C 3.550781 -5.945312 3.296875 -6.015625 2.984375 -6.015625 L 1.921875 -6.015625 L 1.921875 -3.4375 Z M 2.921875 -3.4375 "/></g></g></g><g fill="#000000" fill-opacity="1"><g transform="translate(79.714531, 34.215089)"><g><path d="M 1.921875 -6.90625 L 1.921875 0 L 1 0 L 1 -6.90625 Z M 1.921875 -6.90625 "/></g></g></g><g fill="#000000" fill-opacity="1"><g transform="translate(85.07813, 34.215089)"><g><path d="M 6.28125 -0.890625 L 6.28125 0 L 0.484375 0 L 2.109375 -2.421875 C 3.410156 -4.367188 4.21875 -5.566406 4.53125 -6.015625 L 1.65625 -6.015625 C 1.457031 -6.015625 1.273438 -6.066406 1.109375 -6.171875 C 0.953125 -6.273438 0.875 -6.414062 0.875 -6.59375 L 0.875 -7.25 L 1.734375 -7.25 L 1.734375 -7.125 C 1.734375 -7.019531 1.753906 -6.957031 1.796875 -6.9375 C 1.835938 -6.914062 1.921875 -6.90625 2.046875 -6.90625 L 6.171875 -6.90625 L 2.078125 -0.890625 Z M 6.28125 -0.890625 "/></g></g></g><g fill="#000000" fill-opacity="1"><g transform="translate(155.262469, 34.215089)"><g><path d="M 5.484375 -6.90625 L 5.484375 -6.015625 L 1.921875 -6.015625 L 1.921875 -3.921875 L 5.09375 -3.921875 L 5.09375 -3.03125 L 1.921875 -3.03125 L 1.921875 -0.890625 L 5.609375 -0.890625 L 5.609375 0 L 1 0 L 1 -6.90625 Z M 5.484375 -6.90625 "/></g></g></g><g fill="#000000" fill-opacity="1"><g transform="translate(163.947324, 34.215089)"><g><path d="M 6.34375 -6.90625 L 3.75 -2.296875 L 3.75 0 L 2.828125 0 L 2.828125 -2.296875 L 0.265625 -6.90625 L 1.40625 -6.90625 L 3.3125 -3.34375 L 5.203125 -6.90625 Z M 6.34375 -6.90625 "/></g></g></g><g fill="#000000" fill-opacity="1"><g transform="translate(173.004388, 34.215089)"><g><path d="M 5.0625 -6.90625 L 5.0625 -6.015625 L 3.21875 -6.015625 L 3.21875 0 L 2.296875 0 L 2.296875 -6.015625 L 0.484375 -6.015625 L 0.484375 -6.90625 Z M 5.0625 -6.90625 "/></g></g></g><g fill="#000000" fill-opacity="1"><g transform="translate(181.011634, 34.215089)"><g><path d="M 6.46875 0 L 5.53125 0 L 5.53125 -3.03125 L 1.921875 -3.03125 L 1.921875 0 L 1 0 L 1 -6.90625 L 1.921875 -6.90625 L 1.921875 -3.921875 L 5.53125 -3.921875 L 5.53125 -6.90625 L 6.46875 -6.90625 Z M 6.46875 0 "/></g></g></g><g fill="#000000" fill-opacity="1"><g transform="translate(190.918097, 34.215089)"><g><path d="M 4.609375 -1.8125 L 1.953125 -1.8125 L 1.21875 0 L 0.3125 0 L 3.328125 -7.1875 L 3.375 -7.1875 L 6.390625 0 L 5.328125 0 Z M 4.296875 -2.609375 L 3.3125 -5.140625 L 2.296875 -2.609375 Z M 4.296875 -2.609375 "/></g></g></g><g fill="#000000" fill-opacity="1"><g transform="translate(200.061056, 34.215089)"><g><path d="M 1.921875 -6.90625 L 1.921875 -0.890625 L 5.4375 -0.890625 L 5.4375 0 L 1 0 L 1 -6.90625 Z M 1.921875 -6.90625 "/></g></g></g><g fill="#000000" fill-opacity="1"><g transform="translate(208.450048, 34.215089)"><g><path d="M 5.484375 -6.90625 L 5.484375 -6.015625 L 1.921875 -6.015625 L 1.921875 -3.921875 L 5.09375 -3.921875 L 5.09375 -3.03125 L 1.921875 -3.03125 L 1.921875 -0.890625 L 5.609375 -0.890625 L 5.609375 0 L 1 0 L 1 -6.90625 Z M 5.484375 -6.90625 "/></g></g></g><g fill="#000000" fill-opacity="1"><g transform="translate(217.134904, 34.215089)"><g><path d="M 4.796875 0 L 3.171875 -2.546875 C 3.117188 -2.546875 3.039062 -2.546875 2.9375 -2.546875 L 1.921875 -2.546875 L 1.921875 0 L 1 0 L 1 -6.90625 L 2.828125 -6.90625 C 3.304688 -6.90625 3.726562 -6.820312 4.09375 -6.65625 C 4.46875 -6.488281 4.757812 -6.242188 4.96875 -5.921875 C 5.175781 -5.597656 5.28125 -5.210938 5.28125 -4.765625 C 5.28125 -4.335938 5.1875 -3.945312 5 -3.59375 C 4.8125 -3.238281 4.523438 -2.96875 4.140625 -2.78125 L 5.875 0 Z M 2.921875 -3.4375 C 3.421875 -3.4375 3.78125 -3.566406 4 -3.828125 C 4.21875 -4.085938 4.328125 -4.382812 4.328125 -4.71875 C 4.328125 -4.925781 4.28125 -5.128906 4.1875 -5.328125 C 4.09375 -5.523438 3.945312 -5.6875 3.75 -5.8125 C 3.550781 -5.945312 3.296875 -6.015625 2.984375 -6.015625 L 1.921875 -6.015625 L 1.921875 -3.4375 Z M 2.921875 -3.4375 "/></g></g></g></svg>